<svg xmlns="http://www.w3.org/2000/svg"><style>:root{visibility:hidden}:target{visibility:visible}</style><svg fill="none" id="arrow-icon" viewBox="0 0 50 48"><path d="M0 22h42.3l-8.1-8.2L37 11l13 13-13 13-2.8-2.8 8.1-8.2H0v-4Z" fill="#000"></path></svg><svg fill="none" id="cart-icon" viewBox="0 0 24 24"><path d="M21.23 10.24h-3.38L14.56 3.4c-.2-.4-.58-.5-.97-.3-.38.2-.48.6-.29 1l3 6.14H7.5l3-6.13c.2-.4 0-.8-.29-1-.38-.21-.77 0-.96.3l-3.29 6.83H2.77c-.38 0-.77.3-.77.8 0 .4.29.8.77.8h.2l.87 3.02c-.2.1-.3.3-.3.6 0 .4.3.7.68.7L5.86 22h12.28l1.64-5.83c.38 0 .67-.3.67-.7 0-.2-.1-.5-.29-.6l.87-3.02h.2c.38 0 .77-.3.77-.8 0-.51-.39-.81-.77-.81Zm-4.35 10.15H6.83l-1.16-4.32h12.47l-1.26 4.32Zm1.55-5.83H5.19l-.77-2.81H19.2l-.77 2.81Z" fill="#000"></path></svg><svg viewBox="0 0 50 21" id="cosin"><path d="M0 4C12.5 4 12.5 17 25 17C37.5 17 37.5 4 50 4" stroke="#f1f1f1" stroke-width="8" fill="none"></path></svg><svg fill="none" id="delivery-icon" viewBox="0 0 56 38"><path d="M12.03 35h12.61V21.27H12.03V35Zm28.36-23.3h-7.37c.5-.3 1-.5 1.41-.8 1.62-1.09 2.42-2.57 2.42-3.95 0-1.18-.6-2.17-1.41-2.86A4.72 4.72 0 0 0 32.41 3c-1.2 0-2.42.4-3.33 1.09a10.36 10.36 0 0 0-3.43 4.05c0 .1-.1.2-.1.2-.3-.6-.6-1.2-1-1.78a8.5 8.5 0 0 0-2.53-2.47C21 3.49 19.9 3 18.69 3s-2.32.5-3.23 1.28a4.39 4.39 0 0 0-1.41 3.07c0 .69.2 1.48.6 2.17.6.89 1.41 1.58 2.63 2.17H10.6c-.9 0-1.61.7-1.61 1.58v5.83h15.54v-7.4h1.92v7.4H42v-5.83c0-.89-.7-1.58-1.61-1.58Zm-22.5-2.28c-.61-.4-1.02-.79-1.22-1.09-.2-.4-.3-.69-.3-.98 0-.5.2-1 .7-1.49.4-.4 1.01-.69 1.62-.69.7 0 1.41.2 2.02.7a7.6 7.6 0 0 1 2.62 3.15c.3.7.6 1.39.8 2.08-3.12-.3-5.14-.99-6.25-1.68Zm10.59-1.58a6.84 6.84 0 0 1 1.91-1.88c.71-.5 1.42-.69 2.02-.69.6 0 1.11.2 1.52.5.4.3.6.69.6 1.18 0 .5-.3 1.28-1.51 2.07-1.11.8-3.13 1.68-6.16 2.28.3-1.19.91-2.47 1.62-3.46ZM26.46 35h12.61V21.27H26.46V35Z" fill="#63D1BB"></path></svg><svg fill="none" id="eco-icon" viewBox="0 0 56 38"><path d="M30.5 38C39.58 38 47 30.65 47 21.66A16.4 16.4 0 0 0 30.5 38ZM18.74 16.65c0 2.55 2.07 4.5 4.54 4.5.93 0 1.86-.31 2.58-.82v.3c0 2.56 2.06 4.5 4.54 4.5a4.49 4.49 0 0 0 4.53-4.5v-.3c.73.5 1.65.82 2.58.82a4.49 4.49 0 0 0 4.54-4.5 4.43 4.43 0 0 0-2.58-4.09 4.43 4.43 0 0 0 2.58-4.08 4.54 4.54 0 0 0-7.12-3.68v-.3c0-2.56-2.06-4.5-4.53-4.5a4.49 4.49 0 0 0-4.54 4.5v.3a4.54 4.54 0 0 0-2.58-.82 4.49 4.49 0 0 0-4.54 4.5 4.43 4.43 0 0 0 2.58 4.08 4.61 4.61 0 0 0-2.58 4.1ZM30.5 7.97a4.49 4.49 0 1 1 0 8.99 4.49 4.49 0 1 1 0-9ZM14 21.66C14 30.65 21.43 38 30.5 38A16.4 16.4 0 0 0 14 21.66Z" fill="#63D1BB"></path></svg><svg fill="none" id="email-icon" viewBox="0 0 32 32"><path d="M28 6H4c-2.2 0-4 1.8-4 4v13c0 2.2 1.8 4 4 4h24c2.2 0 4-1.8 4-4V10c0-2.2-1.8-4-4-4ZM2 11.3l7 5.3-7 5.3V11.3ZM30 23a2 2 0 0 1-2 2H4a2 2 0 0 1-2-2l7.8-5.9 4.4 3.3a3 3 0 0 0 3.6 0l4.4-3.3L30 23Zm0-1.2-7-5.3 7-5.3v10.6Zm-12.8-2.2c-.4.3-.8.4-1.2.4-.4 0-.9-.1-1.2-.4l-4.1-3.1-.8-.6L2 10c0-1.1.9-2 2-2h24a2 2 0 0 1 2 2l-12.8 9.6Z" fill="#000"></path></svg><svg fill="none" id="flag-icon" viewBox="0 0 110 82"><path d="M70.77 4.77v38.56L110 24 70.77 4.77ZM63 81.9V.9h3.83v81H63Z" fill="#63D1BB"></path><path d="M66.83 1H63v81h3.83V1Z" fill="#231F20"></path></svg><svg fill="none" id="handmade-icon" viewBox="0 0 56 38"><path d="M9.3 15.95c-.4 2.08-.4 4.16 0 6.24l4.18-3.17-4.17-3.07ZM33.85 3.59a17.96 17.96 0 0 0-15.58.4l7.64 5.53 7.94-5.93ZM43.53 15.06l-4.9 3.66 5 3.66c.5-2.37.5-4.94-.1-7.32ZM18.37 34.06a17.84 17.84 0 0 0 16 .1l-8.26-6.04-7.74 5.94ZM17.05 16.25l-6.32-4.55c-.3.7-.61 1.38-.81 2.08l5.4 3.95 1.73-1.48ZM27.94 26.83l8.46 6.14c.3-.2.61-.4.81-.6.3-.2.61-.49.92-.79l-8.45-6.13-1.74 1.38ZM20.61 13.58l-7.54-5.44c-.5.5-.91 1.09-1.32 1.68l7.03 5.14 1.83-1.38ZM31.5 24.16l8.26 6.04c.5-.5.92-1.09 1.32-1.68l-7.84-5.74-1.73 1.38ZM24.18 10.9l-7.85-5.73c-.2.1-.4.3-.6.4-.42.3-.82.59-1.13.98l7.84 5.64 1.74-1.28ZM35.07 21.4l7.13 5.14c.3-.7.61-1.29.92-1.98L36.91 20l-1.84 1.38ZM35.89 4.67 9.92 24.37c.2.68.5 1.38.81 2.07l27-20.48c-.52-.5-1.13-.89-1.84-1.29ZM40.27 8.53c-.3-.4-.61-.79-.92-1.09l-27.5 20.78c.2.5.51.89.82 1.19.1.2.3.4.4.5l27.7-20.78c-.2-.2-.3-.4-.5-.6ZM41.9 10.9 14.7 31.49c.51.5 1.12 1 1.74 1.39l26.48-19.98c-.3-.7-.61-1.39-1.02-1.98Z" fill="#63D1BB"></path></svg><svg fill="none" id="html-icon" viewBox="0 0 35 35"><path d="M17.6 0h-.1L4 1.4v24.7l13.5 8 13.4-8V1.4L17.6 0ZM29 12.1 17.5 5.3v-.1h-.1l-.1-.1v.1L5.9 12.1v-9l11.5-1.2L29 3.1v9ZM17.4 6.8l11.5 6.7-4.5 2.6-7.1-4.2v1.4l5.9 3.5-.9.5-5-3v1.4l3.8 2.3-.8.5-3-1.8v1.4l1.9 1.1-1.8 1.1L6 13.6l11.4-6.8ZM5.9 15.1l11.4 6.8v1l-7.9-4.7v1.4l8 4.8v1.1l-8-4.7v1.4l8 4.8 8.1-4.9v-5.2l3.4-2v10l-11.5 6.9L5.9 25v-9.9Z" fill="#63D1BB"></path></svg><svg fill="none" id="likes-icon" viewBox="0 0 56 38"><path d="M48 14.45C48 9.79 43.98 6 39.04 6c-3.5 0-6.5 1.94-8.04 4.66A9.12 9.12 0 0 0 22.96 6C18.02 6 14 9.79 14 14.45 14 23.29 29.15 33 31 33c1.96 0 17-9.62 17-18.55Z" fill="#63D1BB"></path></svg><svg fill="none" id="pin-icon" viewBox="0 0 100 101"><path d="M74.15 10.13c-13.1-12.2-34.2-12.2-47.3 0-13.1 12.2-13.1 31.94 0 44.14 0 0 23.65 21.63 23.65 46.63 0-25 23.65-46.63 23.65-46.63 13.1-12.1 13.1-31.94 0-44.14Z" fill="#fff"></path><path d="M64.71 46.14c-.6-3.28.1-6.85 0-10.22-.1-3.77-.7-7.44-.7-11.11 0-2.98.5-6.15-.52-9.03.1-.3.1-.7.2-1 .31-1.48-4.66-.68-5.37.6-.51.4-.71.9-.51 1.3.1.1.1.2.1.4-.91 4.46-2.23 8.72-3.76 13.09-.6 1.68-1.21 3.27-1.82 4.86a67.03 67.03 0 0 1-2.34-4.67c-1.93-4.76-3.75-9.62-6.09-14.18.3-2.08-4.57-1.89-5.48 0-1.12 2.38-1.02 4.76-.61 7.24.4 2.88.5 5.66.5 8.53.11 5.56.52 11.01.62 16.57-.51.6-.61 1.19-.1 1.88.2.3.5.5.8.8 1.33.99 4.98.2 4.98-1.79 0-5.75-.4-11.4-.6-17.16v-1.69c.1.2.2.4.2.6.91 2.18 1.82 4.36 3.14 6.45 1.22 2.08 1.83 4.26 2.54 6.45-.3.3-.4.59-.3.99-.1.3.1.4.4.5.92.79 2.64.39 3.56 0l1.21-.6c.51-.3 1.22-1 1.02-1.59 0-.1-.1-.3-.1-.4.7-1.78 1.01-3.57 1.42-5.45.4-1.99 1.12-3.87 1.83-5.76.1.9.1 1.69.2 2.58.3 3.57 0 7.05 0 10.62 0 1.19.1 2.28.3 3.37.1.5.51 2.48.4 2.58-.9.8-.6 1.79.52 1.98 1.32.3 2.94-.1 3.96-.99 1.62-1.39.8-3.77.4-5.75Z" fill="#6BC6B3"></path></svg><svg fill="none" id="play-video-icon" viewBox="0 0 102 102"><path d="M98.25 30.34s-.91-7.1-3.85-10.24c-3.65-4.05-7.81-4.15-9.64-4.35C71.28 14.74 51 14.74 51 14.74h-.1s-20.28 0-33.76 1c-1.93.21-5.99.31-9.64 4.36-2.84 3.14-3.85 10.24-3.85 10.24s-.91 8.3-.91 16.6v7.81c0 8.3.91 16.61.91 16.61s.91 7.1 3.85 10.23c3.65 4.06 8.52 3.96 10.65 4.36 7.7.81 32.85 1.01 32.85 1.01s20.28 0 33.76-1c1.93-.21 5.99-.31 9.64-4.37 2.83-3.14 3.85-10.23 3.85-10.23s.91-8.3.91-16.61v-7.8c0-8.3-.91-16.61-.91-16.61Z" fill="#63D1BB"></path><path d="M50.9 89.8c-1.02 0-25.35-.3-33.06-1.01h-.2c-.3-.1-.7-.1-1.11-.2-2.54-.3-7.3-.92-10.95-5.07C2.13 79.87 1.12 72.58 1 71.77c0-.3-1.01-8.61-1.01-16.92v-7.8c0-8.4.91-16.61.91-16.92v-.1c.1-.8 1.22-8 4.57-11.75a15.63 15.63 0 0 1 10.84-5.17c.2 0 .41 0 .51-.1h.1C30.42 12 50.7 12 50.9 12h.1c.2 0 20.48 0 33.97 1.01h.1c.2 0 .3 0 .5.1 2.24.2 6.8.71 10.85 5.17 3.45 3.65 4.47 10.94 4.57 11.75 0 .3 1.01 8.61 1.01 17.02v7.8c0 8.4-.91 16.61-1.01 16.92v.1c-.1.81-1.22 8.1-4.57 11.75a15.63 15.63 0 0 1-10.85 5.17c-.2 0-.4 0-.5.1h-.1c-13.49.91-33.87.91-34.07.91Zm-32.35-6.48c7.6.7 31.64 1.01 32.45 1.01.71 0 20.38 0 33.46-1.01.2 0 .4 0 .6-.1 1.83-.2 4.67-.51 7.3-3.35 1.83-2.02 2.95-6.99 3.15-8.71.1-.5.91-8.5.91-16.3v-7.81c0-7.9-.9-15.8-1.01-16.3-.3-2.44-1.42-6.9-3.14-8.62-2.64-2.94-5.48-3.14-7.3-3.34-.2 0-.4 0-.61-.1-13.28-1.02-33.26-1.02-33.46-1.02h-.1c-.2 0-20.28 0-33.46 1.02-.2 0-.4 0-.61.1-1.83.2-4.66.5-7.3 3.34-1.83 2.03-2.94 6.99-3.14 8.71-.1.61-.92 8.51-.92 16.31v7.8c0 7.8.92 15.8.92 16.31.3 2.43 1.42 6.89 3.14 8.61 2.33 2.64 5.37 3.04 7.6 3.35.61-.1 1.02 0 1.52.1Z" fill="#fff"></path><path d="M38.83 32.77v36.16L69.05 50.9 38.83 32.77Z" fill="#fff"></path></svg><svg fill="none" id="price-icon" viewBox="0 0 56 38"><path d="M50.07 6H10.93A3.84 3.84 0 0 0 7 9.86v19.28A3.84 3.84 0 0 0 10.93 33h39.14A3.84 3.84 0 0 0 54 29.14V9.86A3.97 3.97 0 0 0 50.07 6ZM10.03 30.73V8.77h40.54v21.96H10.03Z" fill="#63D1BB"></path><path d="M13.96 26.87h32.68V12.63H13.96v14.24ZM30.5 14.5a5.33 5.33 0 0 1 5.35 5.24 5.33 5.33 0 0 1-5.35 5.24 5.33 5.33 0 0 1-5.35-5.24 5.27 5.27 0 0 1 5.35-5.24Z" fill="#63D1BB"></path></svg><svg fill="none" id="production-icon" viewBox="0 0 56 38"><path d="M40.95 13.75c-3.64-1-7.89-1.69-12.54-1.69-2.93 0-5.56.2-7.79.6L13.75 8H.1l5.87 6.15h8.49c-4.65 1.58-6.88 3.47-6.88 3.47v3.76s2.33 1.89 6.98 3.47h-8.7L0 31h13.65l6.87-4.66a49.05 49.05 0 0 0 20.32-1.09 10.14 10.14 0 0 1-1.92-5.85c.1-1.98.91-3.87 2.03-5.65ZM44.49 14.74c-1.32 1.59-2.03 3.17-2.03 4.76 0 1.59.71 3.17 2.03 4.76C50.96 22.08 55 19.5 55 19.5s-4.04-2.58-10.51-4.76Z" fill="#63D1BB"></path></svg><svg fill="none" id="search-icon" viewBox="0 0 24 24"><path d="m20.7 19.06-3.48-3.48a7.63 7.63 0 0 0 1.53-4.7c0-4.4-3.48-7.88-7.88-7.88A7.81 7.81 0 0 0 3 10.88c0 4.4 3.48 7.87 7.88 7.87 1.73 0 3.37-.61 4.7-1.53l3.48 3.47c.2.2.4.31.82.31.6 0 1.12-.51 1.12-1.13 0-.2-.1-.5-.3-.81ZM5.24 10.88a5.67 5.67 0 0 1 5.63-5.63 5.67 5.67 0 0 1 5.62 5.63 5.67 5.67 0 0 1-5.63 5.62 5.67 5.67 0 0 1-5.62-5.63Z" fill="#000"></path></svg><svg viewBox="0 0 2 2" id="stack"></svg><svg fill="none" id="stuff-icon" viewBox="0 0 64 64"><g opacity=".5" fill="#149080"><path d="M27.5 39.66c-.3.99-.2 2.18 0 3.57.51 2.59 1.74 5.96 2.45 9.64h5.2c.72-3.58 1.94-6.95 2.55-9.64.3-1.39.3-2.68 0-3.57-.3-.9-.92-1.6-2.04-2.29h-6.12c-1.22.7-1.83 1.4-2.04 2.29ZM39.54 59.53H25.46c-1.32 0-2.34 1-2.34 2.18v2.19h18.76v-2.19c0-1.19-1.02-2.18-2.34-2.18ZM46.78 4.19H34.85c0-1.2-1.02-2.19-2.35-2.19s-2.35 1-2.35 2.19H18.22L12 29.52c.82-.5 1.63-1 2.65-1 1.43 0 2.25.8 2.96 1.4.71.6 1.22.8 1.43.8.3 0 .81-.3 1.53-.8.71-.5 1.63-1.4 2.95-1.4 1.33 0 2.25.8 2.96 1.4.72.5 1.23.8 1.53.8.1 0 .3-.1.61-.2.2-.1.51-.4.92-.6.51-.4 1.12-1 2.04-1.2.3-.1.61-.1.92-.1 1.33 0 2.24.8 2.96 1.4.71.5 1.22.8 1.53.8.3 0 .81-.3 1.43-.8.7-.6 1.63-1.4 2.95-1.4 1.43 0 2.25.8 2.96 1.4.3.3.61.5.92.6.2.1.4.2.61.2.3 0 .82-.3 1.43-.9.71-.6 1.63-1.4 2.96-1.4 1.02 0 1.83.5 2.65 1L46.78 4.2ZM35.97 55.06h-7.04c-.71 0-1.12.5-1.12 1.09 0 .6.5 1.1 1.12 1.1h7.04c.71 0 1.12-.5 1.12-1.1.1-.6-.4-1.1-1.12-1.1Z"></path><path d="M32.5 30.71c-.1 0-.3.1-.61.2-.2.1-.41.3-.61.4v3.68h2.34V31.4c-.5-.4-.92-.7-1.12-.7Z"></path></g></svg><svg fill="none" id="tel-icon" viewBox="0 0 32 32"><g fill="#000"><path d="M21.44 28h-1.1a17.63 17.63 0 0 1-11.2-5.73A18.8 18.8 0 0 1 4 10.72V9.33c.1-.89.5-1.48 1.1-2.07.61-.7 1.62-1.48 2.53-1.58.7 0 1.81.5 2.22 1.09.4.49.6 1.58.8 2.37.2.88.6 1.97.5 2.76-.2 1.19-1.8 1.68-2.21 2.57a16.4 16.4 0 0 0 7.56 8.2c.8-.5 1.61-1.88 2.82-1.88.4 0 1.01.2 1.41.3.5.1.91.3 1.31.49.71.3 2.02.6 2.42 1.19.4.59.7 1.58.6 2.17-.3 1.28-2.41 2.66-3.62 3.06ZM16.6 5.48A10.8 10.8 0 0 1 27.5 16.15H29C29 9.43 23.46 4 16.6 4v1.48Z"></path><path d="M16.6 13.19v1.58c.8 0 1.41.59 1.41 1.38h1.61a3 3 0 0 0-3.02-2.96ZM16.6 10.12a6.11 6.11 0 0 1 6.15 6.03h1.61c0-4.15-3.42-7.5-7.66-7.5v1.47h-.1Z"></path></g></svg><svg fill="none" id="telegram-icon" viewBox="0 0 29 28"><path fill-rule="evenodd" clip-rule="evenodd" d="M23.58 6.15c.18.15.26.38.22.61l-2.62 15.76a.66.66 0 0 1-1.01.44l-7.88-5.25a.66.66 0 0 1-.15-.96l2.61-3.26-4.36 2.9a.66.66 0 0 1-.66.05L4.48 13.8a.66.66 0 0 1 .07-1.2l18.39-6.57a.66.66 0 0 1 .64.11ZM6.44 13.32l3.54 1.77 7.56-5.04a.66.66 0 0 1 .88.96l-4.8 6 6.43 4.3 2.28-13.66-15.89 5.67Z" fill="#231F20"></path></svg><svg fill="none" id="toy-icon" viewBox="0 0 64 64"><path opacity=".5" d="M2 47.73 29.86 64V40.15L2 23.78v23.95Zm52.16-32.04v2.56c0 1.84-3.56 3.38-7.83 3.38-4.38 0-7.83-1.54-7.83-3.38v-4.2c.3 1.74 3.66 3.18 7.83 3.18 4.37 0 7.83-1.54 7.83-3.38 0-1.84-3.56-3.38-7.83-3.38H45.3L40.23 7.5v3.18c0 1.84-3.56 3.37-7.83 3.37-2.75 0-5.08-.61-6.5-1.53-.21-.2-.41-.41-.72-.62-.4-.4-.61-.81-.61-1.22V7.6l-4.88 2.86h-1.12c-4.37 0-7.83 1.54-7.83 3.38 0 1.84 3.56 3.38 7.83 3.38 4.17 0 7.52-1.44 7.83-3.18v4.2c0 1.84-3.56 3.38-7.83 3.38-4.37 0-7.83-1.54-7.83-3.38v-2.46l-6.1 3.59L32.6 35.75l27.86-16.27-6.3-3.79ZM40.33 26.13c0 1.84-3.56 3.38-7.83 3.38-4.37 0-7.83-1.54-7.83-3.38v-4.2c.3 1.74 3.66 3.18 7.83 3.18s7.52-1.44 7.83-3.18v4.2Zm-5.19 14.23V64L63 47.73V24.08L35.14 40.36ZM32.4 9.76c4.37 0 7.83-1.54 7.83-3.38C40.23 4.54 36.67 3 32.4 3c-4.37 0-7.83 1.54-7.83 3.38 0 1.84 3.46 3.38 7.83 3.38Z" fill="#149080"></path></svg><svg fill="none" id="video-icon" viewBox="0 0 32 32"><path d="m26 15 6-4v16l-6-4v-8Zm-2 0v8c0 2.2-1.8 4-4 4H4c-2.2 0-4-1.8-4-4v-8c0-2.2 1.8-4 4-4h10c0-1.1.9-2 2-2V7H5c-.6 0-1-.4-1-1s.4-1 1-1h12c.6 0 1 .4 1 1v3a2 2 0 0 1 2 2c2.2 0 4 1.8 4 4Zm-12 0H4v8h8v-8Zm8 1c0-.6-.4-1-1-1h-4c-.6 0-1 .4-1 1s.4 1 1 1h4c.6 0 1-.4 1-1Z" fill="#63D1BB"></path></svg><svg fill="none" id="vk-icon" viewBox="0 0 29 28"><g clip-path="url(#vk-icon_0)"><path d="M1.12 8.34c0-.86.51-1.32 1.54-1.38l3.97.02c.27 0 .45.13.54.38.4 1.26.86 2.34 1.37 3.25.5.92 1.17 1.97 1.98 3.16.07.15.19.23.35.23.12 0 .22-.06.3-.18l.07-.28.03-4.35c0-.3-.08-.5-.23-.6-.15-.1-.43-.18-.84-.23-.32-.05-.48-.23-.48-.55 0-.07.01-.12.03-.15.37-1.09 1.44-1.63 3.2-1.63L14.44 6c.67 0 1.23.16 1.68.48.44.32.66.82.66 1.5v5.72c.13.08.24.12.35.12.27 0 .5-.15.7-.45 1.95-2.58 3-4.31 3.16-5.18l.06-.13c.12-.25.32-.47.6-.65.3-.19.54-.31.76-.38a.56.56 0 0 1 .23-.05h4.13l.27.03c.36 0 .63.16.83.47.07.1.12.21.14.33a2.4 2.4 0 0 1 .07.55v.18a6.11 6.11 0 0 1-.95 2.2c-.5.78-1.15 1.62-1.93 2.53-.78.9-1.27 1.5-1.46 1.78-.16.2-.24.39-.24.56 0 .13.07.28.21.45l3.9 4.63c.2.26.31.56.31.88 0 .38-.16.7-.48.95-.32.25-.7.4-1.14.43l-.46.02H21.8l-.1.02a.86.86 0 0 1-.11.01c-.4 0-.76-.16-1.1-.48l-2.5-2.97a1.39 1.39 0 0 0-.37-.32 38.47 38.47 0 0 0-.53 2.24l-.08.42a1.4 1.4 0 0 1-1.12 1.06l-.38.02h-2.6c-1.48 0-2.95-.63-4.42-1.9a19.3 19.3 0 0 1-3.95-4.95 47.52 47.52 0 0 1-3.28-7.05 1.92 1.92 0 0 1-.13-.73Zm16.01 6.51c-.37 0-.71-.1-1.01-.29a.9.9 0 0 1-.46-.79V8c0-.34-.08-.58-.26-.72s-.5-.21-.93-.21l-1.52.05c-.77 0-1.34.12-1.73.37.78.36 1.17.93 1.17 1.71v4.43a1.5 1.5 0 0 1-.54 1.04c-.32.28-.67.42-1.06.42-.53 0-.94-.24-1.23-.73a26.16 26.16 0 0 1-3.09-5.63l-.24-.66-3.54-.02c-.23 0-.36.01-.39.03-.02.03-.04.1-.04.22 0 .15.02.3.06.48l.56 1.4c1.49 3.64 3.1 6.51 4.86 8.6 1.75 2.1 3.47 3.15 5.15 3.15h2.67c.1 0 .18-.03.24-.09.05-.06.1-.17.13-.34l.05-.25.51-2.21c.14-.3.27-.5.37-.6.2-.2.43-.28.7-.28.42 0 .86.24 1.3.73l2.27 2.71c.14.22.29.33.45.33h4.4c.53 0 .8-.13.8-.38a.47.47 0 0 0-.09-.25l-3.86-4.55c-.3-.35-.45-.73-.45-1.13 0-.4.14-.8.42-1.16.24-.34.68-.9 1.35-1.67.67-.78 1.25-1.51 1.75-2.19.5-.68.82-1.3.98-1.85l.08-.33a.37.37 0 0 1-.03-.16c0-.07 0-.14-.02-.19h-4.19c-.26.1-.47.25-.63.45l-.16.48c-.45 1.16-1.61 2.94-3.5 5.36-.37.33-.8.5-1.3.5Z" fill="#231F20"></path></g><defs><clipPath id="vk-icon_0"><path fill="#fff" transform="translate(.06)" d="M0 0h28v28H0z"></path></clipPath></defs></svg><svg viewBox="0 0 50 32" preserveAspectRatio="none" id="wave"><path d="M50 32V0C37.5 0 37.5 13 25 13C12.5 13 12.5 0 0 0V32" fill="#fff"></path></svg><svg fill="none" id="youtube-icon" viewBox="0 0 29 28"><path d="m17.97 13.8-5.24-3.5a.65.65 0 0 0-1.01.55v6.98a.65.65 0 0 0 1.01.54l5.24-3.49a.65.65 0 0 0 0-1.09Zm-4.94 2.8v-4.53l3.4 2.27-3.4 2.27ZM25.5 8.05a2.4 2.4 0 0 0-1.45-1.63C20.34 4.98 14.36 5 14.12 5c-.25 0-6.22-.02-9.94 1.4a2.4 2.4 0 0 0-1.45 1.64 25.32 25.32 0 0 0-.61 6.3c0 3.26.32 5.22.6 6.3a2.4 2.4 0 0 0 1.46 1.63c3.72 1.43 9.69 1.4 9.94 1.4h.07c.76 0 6.32-.04 9.87-1.4a2.4 2.4 0 0 0 1.45-1.64c.28-1.07.6-3.03.6-6.3 0-3.25-.32-5.22-.6-6.29Zm-1.27 12.27a1.1 1.1 0 0 1-.65.74c-3.5 1.34-9.4 1.32-9.47 1.32-.07 0-5.98.02-9.47-1.32a1.09 1.09 0 0 1-.66-.74c-.26-1-.56-2.85-.56-5.97 0-3.12.3-4.97.56-5.97a1.1 1.1 0 0 1 .66-.74c3.49-1.34 9.4-1.32 9.47-1.32.06 0 5.98-.02 9.47 1.32a1.1 1.1 0 0 1 .65.74c.26 1 .57 2.85.57 5.97 0 3.12-.3 4.96-.57 5.97Z" fill="#231F20"></path></svg></svg>