<svg width="24" height="24" fill="none" xmlns="http://www.w3.org/2000/svg"><path d="M21.23 10.24h-3.38L14.56 3.4c-.2-.4-.58-.5-.97-.3-.38.2-.48.6-.29 1l3 6.14H7.5l3-6.13c.2-.4 0-.8-.29-1-.38-.21-.77 0-.96.3l-3.29 6.83H2.77c-.38 0-.77.3-.77.8 0 .4.29.8.77.8h.2l.87 3.02c-.2.1-.3.3-.3.6 0 .4.3.7.68.7L5.86 22h12.28l1.64-5.83c.38 0 .67-.3.67-.7 0-.2-.1-.5-.29-.6l.87-3.02h.2c.38 0 .77-.3.77-.8 0-.51-.39-.81-.77-.81Zm-4.35 10.15H6.83l-1.16-4.32h12.47l-1.26 4.32Zm1.55-5.83H5.19l-.77-2.81H19.2l-.77 2.81Z" fill="#000"/></svg>
