<svg width="64" height="64" fill="none" xmlns="http://www.w3.org/2000/svg"><path opacity=".5" d="M2 47.73 29.86 64V40.15L2 23.78v23.95Zm52.16-32.04v2.56c0 1.84-3.56 3.38-7.83 3.38-4.38 0-7.83-1.54-7.83-3.38v-4.2c.3 1.74 3.66 3.18 7.83 3.18 4.37 0 7.83-1.54 7.83-3.38 0-1.84-3.56-3.38-7.83-3.38H45.3L40.23 7.5v3.18c0 1.84-3.56 3.37-7.83 3.37-2.75 0-5.08-.61-6.5-1.53-.21-.2-.41-.41-.72-.62-.4-.4-.61-.81-.61-1.22V7.6l-4.88 2.86h-1.12c-4.37 0-7.83 1.54-7.83 3.38 0 1.84 3.56 3.38 7.83 3.38 4.17 0 7.52-1.44 7.83-3.18v4.2c0 1.84-3.56 3.38-7.83 3.38-4.37 0-7.83-1.54-7.83-3.38v-2.46l-6.1 3.59L32.6 35.75l27.86-16.27-6.3-3.79ZM40.33 26.13c0 1.84-3.56 3.38-7.83 3.38-4.37 0-7.83-1.54-7.83-3.38v-4.2c.3 1.74 3.66 3.18 7.83 3.18s7.52-1.44 7.83-3.18v4.2Zm-5.19 14.23V64L63 47.73V24.08L35.14 40.36ZM32.4 9.76c4.37 0 7.83-1.54 7.83-3.38C40.23 4.54 36.67 3 32.4 3c-4.37 0-7.83 1.54-7.83 3.38 0 1.84 3.46 3.38 7.83 3.38Z" fill="#149080"/></svg>