<svg width="29" height="28" fill="none" xmlns="http://www.w3.org/2000/svg"><g clip-path="url(#a)"><path d="M1.12 8.34c0-.86.51-1.32 1.54-1.38l3.97.02c.27 0 .45.13.54.38.4 1.26.86 2.34 1.37 3.25.5.92 1.17 1.97 1.98 3.16.07.15.19.23.35.23.12 0 .22-.06.3-.18l.07-.28.03-4.35c0-.3-.08-.5-.23-.6-.15-.1-.43-.18-.84-.23-.32-.05-.48-.23-.48-.55 0-.07.01-.12.03-.15.37-1.09 1.44-1.63 3.2-1.63L14.44 6c.67 0 1.23.16 1.68.48.44.32.66.82.66 1.5v5.72c.13.08.24.12.35.12.27 0 .5-.15.7-.45 1.95-2.58 3-4.31 3.16-5.18l.06-.13c.12-.25.32-.47.6-.65.3-.19.54-.31.76-.38a.56.56 0 0 1 .23-.05h4.13l.27.03c.36 0 .63.16.83.47.07.1.12.21.14.33a2.4 2.4 0 0 1 .07.55v.18a6.11 6.11 0 0 1-.95 2.2c-.5.78-1.15 1.62-1.93 2.53-.78.9-1.27 1.5-1.46 1.78-.16.2-.24.39-.24.56 0 .13.07.28.21.45l3.9 4.63c.2.26.31.56.31.88 0 .38-.16.7-.48.95-.32.25-.7.4-1.14.43l-.46.02H21.8l-.1.02a.86.86 0 0 1-.11.01c-.4 0-.76-.16-1.1-.48l-2.5-2.97a1.39 1.39 0 0 0-.37-.32 38.47 38.47 0 0 0-.53 2.24l-.08.42a1.4 1.4 0 0 1-1.12 1.06l-.38.02h-2.6c-1.48 0-2.95-.63-4.42-1.9a19.3 19.3 0 0 1-3.95-4.95 47.52 47.52 0 0 1-3.28-7.05 1.92 1.92 0 0 1-.13-.73Zm16.01 6.51c-.37 0-.71-.1-1.01-.29a.9.9 0 0 1-.46-.79V8c0-.34-.08-.58-.26-.72s-.5-.21-.93-.21l-1.52.05c-.77 0-1.34.12-1.73.37.78.36 1.17.93 1.17 1.71v4.43a1.5 1.5 0 0 1-.54 1.04c-.32.28-.67.42-1.06.42-.53 0-.94-.24-1.23-.73a26.16 26.16 0 0 1-3.09-5.63l-.24-.66-3.54-.02c-.23 0-.36.01-.39.03-.02.03-.04.1-.04.22 0 .15.02.3.06.48l.56 1.4c1.49 3.64 3.1 6.51 4.86 8.6 1.75 2.1 3.47 3.15 5.15 3.15h2.67c.1 0 .18-.03.24-.09.05-.06.1-.17.13-.34l.05-.25.51-2.21c.14-.3.27-.5.37-.6.2-.2.43-.28.7-.28.42 0 .86.24 1.3.73l2.27 2.71c.14.22.29.33.45.33h4.4c.53 0 .8-.13.8-.38a.47.47 0 0 0-.09-.25l-3.86-4.55c-.3-.35-.45-.73-.45-1.13 0-.4.14-.8.42-1.16.24-.34.68-.9 1.35-1.67.67-.78 1.25-1.51 1.75-2.19.5-.68.82-1.3.98-1.85l.08-.33a.37.37 0 0 1-.03-.16c0-.07 0-.14-.02-.19h-4.19c-.26.1-.47.25-.63.45l-.16.48c-.45 1.16-1.61 2.94-3.5 5.36-.37.33-.8.5-1.3.5Z" fill="#231F20"/></g><defs><clipPath id="a"><path fill="#fff" transform="translate(.06)" d="M0 0h28v28H0z"/></clipPath></defs></svg>